<?xml version="1.0" encoding="utf-8"?>
<!-- Generator: Adobe Illustrator 27.5.0, SVG Export Plug-In . SVG Version: 6.00 Build 0)  -->
<svg version="1.1" xmlns="http://www.w3.org/2000/svg" xmlns:xlink="http://www.w3.org/1999/xlink" x="0px" y="0px"
	 viewBox="0 0 750 500" style="enable-background:new 0 0 750 500;" xml:space="preserve">
<g id="BACKGROUND">
	<rect id="XMLID_12_" style="fill:#FFFFFF;" width="750" height="500"/>
</g>
<g id="OBJECTS">
	<g id="XMLID_57_">
		<g id="XMLID_100_">
			<g id="XMLID_93_">
				<g id="XMLID_79_">
					
						<line id="XMLID_77_" style="fill:none;stroke:#14213C;stroke-width:0.5928;stroke-miterlimit:10;" x1="287.087" y1="171.197" x2="315.936" y2="171.197"/>
					
						<line id="XMLID_80_" style="fill:none;stroke:#14213C;stroke-width:0.5928;stroke-miterlimit:10;" x1="286.887" y1="170.452" x2="311.871" y2="156.027"/>
					
						<line id="XMLID_81_" style="fill:none;stroke:#14213C;stroke-width:0.5928;stroke-miterlimit:10;" x1="286.342" y1="169.907" x2="300.767" y2="144.923"/>
					
						<line id="XMLID_82_" style="fill:none;stroke:#14213C;stroke-width:0.5928;stroke-miterlimit:10;" x1="285.597" y1="169.707" x2="285.597" y2="140.858"/>
					
						<line id="XMLID_83_" style="fill:none;stroke:#14213C;stroke-width:0.5928;stroke-miterlimit:10;" x1="284.852" y1="169.907" x2="270.427" y2="144.923"/>
					
						<line id="XMLID_84_" style="fill:none;stroke:#14213C;stroke-width:0.5928;stroke-miterlimit:10;" x1="284.307" y1="170.452" x2="259.323" y2="156.027"/>
					
						<line id="XMLID_88_" style="fill:none;stroke:#14213C;stroke-width:0.5928;stroke-miterlimit:10;" x1="284.107" y1="171.197" x2="255.258" y2="171.197"/>
					
						<line id="XMLID_92_" style="fill:none;stroke:#14213C;stroke-width:0.5928;stroke-miterlimit:10;" x1="284.307" y1="171.942" x2="259.323" y2="186.366"/>
					
						<line id="XMLID_95_" style="fill:none;stroke:#14213C;stroke-width:0.5928;stroke-miterlimit:10;" x1="284.852" y1="172.487" x2="270.427" y2="197.471"/>
					
						<line id="XMLID_96_" style="fill:none;stroke:#14213C;stroke-width:0.5928;stroke-miterlimit:10;" x1="285.597" y1="172.687" x2="285.597" y2="201.536"/>
					
						<line id="XMLID_97_" style="fill:none;stroke:#14213C;stroke-width:0.5928;stroke-miterlimit:10;" x1="286.342" y1="172.487" x2="300.767" y2="197.471"/>
					
						<line id="XMLID_98_" style="fill:none;stroke:#14213C;stroke-width:0.5928;stroke-miterlimit:10;" x1="286.887" y1="171.942" x2="311.871" y2="186.366"/>
				</g>
				<g id="XMLID_94_">
					
						<line id="XMLID_156_" style="fill:none;stroke:#14213C;stroke-width:0.5928;stroke-miterlimit:10;" x1="287.036" y1="170.811" x2="314.902" y2="163.345"/>
					
						<line id="XMLID_153_" style="fill:none;stroke:#14213C;stroke-width:0.5928;stroke-miterlimit:10;" x1="286.65" y1="170.143" x2="307.05" y2="149.744"/>
					
						<line id="XMLID_150_" style="fill:none;stroke:#14213C;stroke-width:0.5928;stroke-miterlimit:10;" x1="285.983" y1="169.758" x2="293.449" y2="141.892"/>
					
						<line id="XMLID_147_" style="fill:none;stroke:#14213C;stroke-width:0.5928;stroke-miterlimit:10;" x1="285.211" y1="169.758" x2="277.745" y2="141.892"/>
					
						<line id="XMLID_144_" style="fill:none;stroke:#14213C;stroke-width:0.5928;stroke-miterlimit:10;" x1="284.544" y1="170.143" x2="264.144" y2="149.744"/>
					
						<line id="XMLID_141_" style="fill:none;stroke:#14213C;stroke-width:0.5928;stroke-miterlimit:10;" x1="284.158" y1="170.811" x2="256.292" y2="163.345"/>
					
						<line id="XMLID_138_" style="fill:none;stroke:#14213C;stroke-width:0.5928;stroke-miterlimit:10;" x1="284.158" y1="171.583" x2="256.292" y2="179.049"/>
					
						<line id="XMLID_135_" style="fill:none;stroke:#14213C;stroke-width:0.5928;stroke-miterlimit:10;" x1="284.544" y1="172.25" x2="264.144" y2="192.65"/>
					
						<line id="XMLID_132_" style="fill:none;stroke:#14213C;stroke-width:0.5928;stroke-miterlimit:10;" x1="285.211" y1="172.636" x2="277.745" y2="200.502"/>
					
						<line id="XMLID_129_" style="fill:none;stroke:#14213C;stroke-width:0.5928;stroke-miterlimit:10;" x1="285.983" y1="172.636" x2="293.449" y2="200.502"/>
					
						<line id="XMLID_102_" style="fill:none;stroke:#14213C;stroke-width:0.5928;stroke-miterlimit:10;" x1="286.65" y1="172.25" x2="307.05" y2="192.65"/>
					
						<line id="XMLID_99_" style="fill:none;stroke:#14213C;stroke-width:0.5928;stroke-miterlimit:10;" x1="287.036" y1="171.583" x2="314.902" y2="179.049"/>
				</g>
			</g>
			<g id="XMLID_101_">
				<g id="XMLID_198_">
					
						<line id="XMLID_232_" style="fill:none;stroke:#14213C;stroke-width:0.5928;stroke-miterlimit:10;" x1="162.469" y1="171.197" x2="191.318" y2="171.197"/>
					
						<line id="XMLID_229_" style="fill:none;stroke:#14213C;stroke-width:0.5928;stroke-miterlimit:10;" x1="162.269" y1="170.452" x2="187.253" y2="156.027"/>
					
						<line id="XMLID_226_" style="fill:none;stroke:#14213C;stroke-width:0.5928;stroke-miterlimit:10;" x1="161.724" y1="169.907" x2="176.148" y2="144.923"/>
					
						<line id="XMLID_223_" style="fill:none;stroke:#14213C;stroke-width:0.5928;stroke-miterlimit:10;" x1="160.979" y1="169.707" x2="160.979" y2="140.858"/>
					
						<line id="XMLID_220_" style="fill:none;stroke:#14213C;stroke-width:0.5928;stroke-miterlimit:10;" x1="160.234" y1="169.907" x2="145.809" y2="144.923"/>
					
						<line id="XMLID_217_" style="fill:none;stroke:#14213C;stroke-width:0.5928;stroke-miterlimit:10;" x1="159.689" y1="170.452" x2="134.704" y2="156.027"/>
					
						<line id="XMLID_214_" style="fill:none;stroke:#14213C;stroke-width:0.5928;stroke-miterlimit:10;" x1="159.489" y1="171.197" x2="130.64" y2="171.197"/>
					
						<line id="XMLID_211_" style="fill:none;stroke:#14213C;stroke-width:0.5928;stroke-miterlimit:10;" x1="159.689" y1="171.942" x2="134.704" y2="186.366"/>
					
						<line id="XMLID_208_" style="fill:none;stroke:#14213C;stroke-width:0.5928;stroke-miterlimit:10;" x1="160.234" y1="172.487" x2="145.809" y2="197.471"/>
					
						<line id="XMLID_205_" style="fill:none;stroke:#14213C;stroke-width:0.5928;stroke-miterlimit:10;" x1="160.979" y1="172.687" x2="160.979" y2="201.536"/>
					
						<line id="XMLID_202_" style="fill:none;stroke:#14213C;stroke-width:0.5928;stroke-miterlimit:10;" x1="161.724" y1="172.487" x2="176.148" y2="197.471"/>
					
						<line id="XMLID_199_" style="fill:none;stroke:#14213C;stroke-width:0.5928;stroke-miterlimit:10;" x1="162.269" y1="171.942" x2="187.253" y2="186.366"/>
				</g>
				<g id="XMLID_103_">
					
						<line id="XMLID_195_" style="fill:none;stroke:#14213C;stroke-width:0.5928;stroke-miterlimit:10;" x1="162.418" y1="170.811" x2="190.284" y2="163.345"/>
					
						<line id="XMLID_192_" style="fill:none;stroke:#14213C;stroke-width:0.5928;stroke-miterlimit:10;" x1="162.032" y1="170.143" x2="182.432" y2="149.744"/>
					
						<line id="XMLID_165_" style="fill:none;stroke:#14213C;stroke-width:0.5928;stroke-miterlimit:10;" x1="161.364" y1="169.758" x2="168.831" y2="141.892"/>
					
						<line id="XMLID_162_" style="fill:none;stroke:#14213C;stroke-width:0.5928;stroke-miterlimit:10;" x1="160.593" y1="169.758" x2="153.126" y2="141.892"/>
					
						<line id="XMLID_159_" style="fill:none;stroke:#14213C;stroke-width:0.5928;stroke-miterlimit:10;" x1="159.925" y1="170.143" x2="139.526" y2="149.744"/>
					
						<line id="XMLID_155_" style="fill:none;stroke:#14213C;stroke-width:0.5928;stroke-miterlimit:10;" x1="159.54" y1="170.811" x2="131.673" y2="163.345"/>
					
						<line id="XMLID_151_" style="fill:none;stroke:#14213C;stroke-width:0.5928;stroke-miterlimit:10;" x1="159.54" y1="171.583" x2="131.673" y2="179.049"/>
					
						<line id="XMLID_146_" style="fill:none;stroke:#14213C;stroke-width:0.5928;stroke-miterlimit:10;" x1="159.925" y1="172.25" x2="139.526" y2="192.65"/>
					
						<line id="XMLID_142_" style="fill:none;stroke:#14213C;stroke-width:0.5928;stroke-miterlimit:10;" x1="160.593" y1="172.636" x2="153.126" y2="200.502"/>
					
						<line id="XMLID_137_" style="fill:none;stroke:#14213C;stroke-width:0.5928;stroke-miterlimit:10;" x1="161.364" y1="172.636" x2="168.831" y2="200.502"/>
					
						<line id="XMLID_133_" style="fill:none;stroke:#14213C;stroke-width:0.5928;stroke-miterlimit:10;" x1="162.032" y1="172.25" x2="182.432" y2="192.65"/>
					
						<line id="XMLID_104_" style="fill:none;stroke:#14213C;stroke-width:0.5928;stroke-miterlimit:10;" x1="162.418" y1="171.583" x2="190.284" y2="179.049"/>
				</g>
			</g>
			
				<polygon id="XMLID_21_" style="fill:none;stroke:#41ADA3;stroke-width:3.1616;stroke-linecap:round;stroke-linejoin:round;stroke-miterlimit:10;" points="
				224.989,175.893 160.979,171.197 193.11,121.752 			"/>
			<g id="XMLID_37_">
				
					<ellipse id="XMLID_16_" transform="matrix(0.2411 -0.9705 0.9705 0.2411 50.5864 407.0869)" style="fill:none;stroke:#14213C;stroke-width:5.0174;stroke-miterlimit:10;" cx="285.597" cy="171.197" rx="32.143" ry="32.143"/>
				
					<circle id="XMLID_23_" style="fill:none;stroke:#41ADA3;stroke-width:2.3712;stroke-miterlimit:10;" cx="285.597" cy="171.197" r="29.771"/>
			</g>
			<g id="XMLID_41_">
				
					<ellipse id="XMLID_59_" transform="matrix(0.7071 -0.7071 0.7071 0.7071 -73.9049 163.9716)" style="fill:none;stroke:#14213C;stroke-width:5.0174;stroke-miterlimit:10;" cx="160.979" cy="171.197" rx="32.143" ry="32.143"/>
				
					<circle id="XMLID_56_" style="fill:none;stroke:#41ADA3;stroke-width:2.3712;stroke-miterlimit:10;" cx="160.979" cy="171.197" r="29.771"/>
				<circle id="XMLID_52_" style="fill:#14213C;" cx="160.979" cy="171.197" r="4.808"/>
				<circle id="XMLID_42_" style="fill:#D7D53E;" cx="160.979" cy="171.197" r="3.293"/>
			</g>
			<path id="XMLID_36_" style="fill:#161A27;" d="M214.218,109.595c0,0,16.197,8.476,21.196,17.627
				c4.999,9.152-11.286,29.109-11.286,29.109l-17.307-34.777L214.218,109.595z"/>
			
				<line id="XMLID_22_" style="fill:none;stroke:#41ADA3;stroke-width:3.1616;stroke-linecap:round;stroke-linejoin:round;stroke-miterlimit:10;" x1="265.725" y1="114.011" x2="284.807" y2="168.826"/>
			<path id="XMLID_15_" style="fill:none;stroke:#304782;stroke-width:2.543;stroke-miterlimit:10;" d="M276.86,114.893h1.589
				c2.926,0,5.298-2.372,5.298-5.298l0,0c0-2.926-2.372-5.298-5.298-5.298h-4.238h-7.219c-2.274,0-3.868,2.243-3.12,4.39
				l1.853,5.324"/>
			
				<polygon id="XMLID_20_" style="fill:none;stroke:#41ADA3;stroke-width:3.1616;stroke-linecap:round;stroke-linejoin:round;stroke-miterlimit:10;" points="
				267.681,121.752 192.858,121.752 224.989,175.893 			"/>
			
				<line id="XMLID_29_" style="fill:none;stroke:#41ADA3;stroke-width:3.1616;stroke-linecap:round;stroke-linejoin:round;stroke-miterlimit:10;" x1="203.349" y1="139.054" x2="189.557" y2="115.39"/>
			<path id="XMLID_30_" style="fill:#121E39;" d="M203.313,114.996l-18.319,1.84c-1.033,0-1.879-0.846-1.879-1.879v-3.601
				c0-1.033,0.846-1.879,1.879-1.879l18.319,1.84c0.517,0,0.939,0.423,0.939,0.939v1.801
				C204.253,114.573,203.83,114.996,203.313,114.996z"/>
			
				<ellipse id="XMLID_33_" transform="matrix(0.7071 -0.7071 0.7071 0.7071 -57.5319 210.2178)" style="fill:#D7D53E;" cx="224.989" cy="174.556" rx="12.065" ry="12.065"/>
			<circle id="XMLID_32_" style="fill:#14213C;" cx="224.989" cy="174.556" r="8.804"/>
			<path id="XMLID_62_" style="fill:#304782;" d="M230.27,174.556c0,2.916-2.364,5.28-5.28,5.28c-2.916,0-5.28-2.364-5.28-5.28
				c0-2.916,2.364-5.28,5.28-5.28C227.906,169.276,230.27,171.64,230.27,174.556z"/>
			
				<line id="XMLID_64_" style="fill:none;stroke:#161A27;stroke-width:0.7904;stroke-miterlimit:10;" x1="224.989" y1="169.276" x2="160.979" y2="167.265"/>
			<polygon id="XMLID_38_" style="fill:#D7D53E;" points="236.546,175.077 255.207,175.077 234.242,188.039 231.086,179.105 			"/>
			<path id="XMLID_35_" style="fill:#14213C;" d="M194.966,97.95c0,0-7.353,6.659-4.566,18.886
				c2.788,12.227,38.52,64.722,38.52,64.722l9.748-7.067l-23.774-59.597l3.92-7.387L194.966,97.95z"/>
			<g id="XMLID_31_">
				<polygon id="XMLID_7_" style="fill:#E0C09C;" points="223.464,61.913 218.123,67.673 225.551,73.682 229.057,66.588 				"/>
				<path id="XMLID_14_" style="fill:#E0C09C;" d="M227.083,70.582l1.974-3.994l-5.592-4.674l-0.025,0.027
					c0.13,0.839,0.368,1.657,0.721,2.425l-0.009,0C224.372,66.999,225.537,69.09,227.083,70.582z"/>
				<g id="XMLID_4_">
					
						<ellipse id="XMLID_5_" transform="matrix(0.2197 -0.9756 0.9756 0.2197 123.538 269.7783)" style="fill:#E0C09C;" cx="230.42" cy="57.66" rx="9.077" ry="9.077"/>
					<path id="XMLID_6_" style="fill:#E0C09C;" d="M239.48,58.193c0,0,0.339,8.636-2.848,10.53
						c-3.187,1.894-9.622,1.049-12.42-4.443L239.48,58.193z"/>
					<path id="XMLID_8_" style="fill:none;stroke:#41ADA3;stroke-width:0.2771;stroke-miterlimit:10;" d="M232.66,61.748
						c0,0-4.758-4.388-6.975-3.742c-2.217,0.647-1.894,3.002,0,3.926c2.154,1.051,5.874,1.747,5.874,1.747"/>
					<path id="XMLID_9_" style="fill:#41ADA3;" d="M239.496,59.715c0,0,0.583,7.91-3.667,9.526c0,0-4.278-1.542-4.278-5.326
						C231.552,60.131,236.771,59.253,239.496,59.715z"/>
					<path id="XMLID_10_" style="fill:#EFDFCD;" d="M236.349,68.898c0,0-4.278-1.432-4.278-4.947c0-3.308,4.623-4.224,7.439-3.963
						c-0.007-0.173-0.014-0.273-0.014-0.273c-2.725-0.462-7.945,0.416-7.945,4.2c0,3.784,4.278,5.326,4.278,5.326
						c0.356-0.135,0.676-0.318,0.967-0.534C236.653,68.778,236.505,68.843,236.349,68.898z"/>
					<path id="XMLID_11_" style="fill:#411600;" d="M239.05,48.935c0.109-0.257,0.169-0.54,0.169-0.837
						c0-1.186-0.962-2.148-2.148-2.148c-0.35,0-0.679,0.085-0.97,0.234c-0.27-0.606-0.853-1.042-1.544-1.103
						c-0.2-1.006-1.087-1.764-2.151-1.764c-0.573,0-1.094,0.222-1.484,0.582c-0.315-0.192-0.683-0.305-1.079-0.305
						c-0.458,0-0.88,0.15-1.223,0.4c-0.336-0.305-0.781-0.493-1.271-0.493c-0.805,0-1.491,0.503-1.765,1.211
						c-0.272-0.124-0.573-0.195-0.891-0.195c-1.155,0-2.094,0.912-2.143,2.054c-0.344-0.19-0.739-0.299-1.16-0.299
						c-1.327,0-2.402,1.075-2.402,2.402c0,0.635,0.248,1.211,0.65,1.64c-0.967,0.311-1.667,1.216-1.667,2.286
						c0,0.586,0.21,1.122,0.559,1.539c-0.559,0.367-0.928,0.999-0.928,1.718c0,0.805,0.463,1.499,1.137,1.837
						c-0.874,0.281-1.506,1.099-1.506,2.066c0,1.199,0.972,2.171,2.171,2.171c0.21,0,0.413-0.031,0.605-0.087
						c0.051,0.847,0.752,1.519,1.612,1.519c0.415,0,0.792-0.158,1.078-0.415c0.283,0.257,0.657,0.415,1.069,0.415
						c0.88,0,1.594-0.713,1.594-1.594c0-0.814-0.611-1.484-1.398-1.581c0.24-0.336,0.382-0.746,0.382-1.191
						c0-0.007-0.001-0.014-0.001-0.021c0.198,0.057,0.408,0.09,0.625,0.09c1.237,0,2.24-1.003,2.24-2.24
						c0-0.015-0.002-0.029-0.002-0.044c0.179,0.072,0.374,0.113,0.58,0.113c0.855,0,1.547-0.693,1.547-1.547
						c0-0.152-0.023-0.297-0.063-0.436c0.236,0.115,0.499,0.182,0.779,0.182c0.982,0,1.778-0.796,1.778-1.778
						c0-0.04-0.003-0.079-0.006-0.118c0.01,0,0.019,0.003,0.029,0.003c0.491,0,0.911-0.281,1.123-0.688
						c0.276,0.254,0.643,0.411,1.048,0.411c0.416,0,0.793-0.165,1.071-0.432c0.283,0.185,0.621,0.294,0.984,0.294
						c0.291,0,0.565-0.071,0.809-0.193c0.385,0.349,0.894,0.563,1.455,0.563c1.199,0,2.171-0.972,2.171-2.171
						C240.513,50.035,239.901,49.229,239.05,48.935z"/>
					<path id="XMLID_13_" style="fill:#E0C09C;" d="M226.655,58.193c0-1.157-1.986-2.404-2.956-0.533
						c-0.97,1.871-0.046,4.919,2.263,3.949"/>
				</g>
				<path id="XMLID_17_" style="fill:#304782;" d="M218.123,67.673c0,0-18.529,9.348-27.877,35.389l30.047,9.348
					c0,0-0.334-15.191,4.507-23.704c4.841-8.513,0.751-15.024,0.751-15.024L218.123,67.673z"/>
				<path id="XMLID_71_" style="fill:#D7D53E;" d="M208.001,69.028c0,0,24.549,4.166,10.121,21.013
					c-4.132,4.826-14.432,4.865-25.402,5.821l-1.426,2.087c0,0,22.952,2.276,30.299-7.129c6.608-8.459,9.078-17.627-11.741-24.504
					L208.001,69.028z"/>
				<path id="XMLID_18_" style="fill:#E0C09C;" d="M228.352,79.632c0,0,14.084,14.035,35.092,21.353l-2.039,4.136
					c0,0-18.712-1.905-36.068-14.743L228.352,79.632z"/>
				<path id="XMLID_19_" style="fill:#304782;" d="M226.385,94.948l-11.139-9.597c-2.894-2.493-3.219-6.861-0.726-9.755l0,0
					c2.493-2.894,6.861-3.219,9.755-0.726l11.139,9.597L226.385,94.948z"/>
				<path id="XMLID_24_" style="fill:#E0C09C;" d="M263.445,100.985c0,0,7.373,0.219,7.974,1.537
					c0.605,1.329-0.833,1.417-0.833,1.417s0.852,0.265,0.628,1.122c-0.223,0.857-1.27,0.822-1.27,0.822s0.622,0.455,0.48,1.315
					c-0.136,0.825-2.117,0.515-3.018-0.049c0,0-3.845,0.697-6-2.027C259.252,102.398,263.445,100.985,263.445,100.985z"/>
				<g id="XMLID_68_">
					
						<rect id="XMLID_47_" x="164.689" y="47.254" transform="matrix(0.8258 0.564 -0.564 0.8258 71.595 -92.4763)" style="fill:#41ADA3;" width="41.56" height="44.766"/>
					<g id="XMLID_63_">
						
							<rect id="XMLID_50_" x="168.844" y="45.953" transform="matrix(0.8258 0.564 -0.564 0.8258 66.587 -85.6318)" style="fill:#D7D53E;" width="6.087" height="38.004"/>
						
							<rect id="XMLID_66_" x="191.727" y="61.583" transform="matrix(0.8258 0.564 -0.564 0.8258 79.3892 -95.8143)" style="fill:#D7D53E;" width="6.087" height="38.004"/>
					</g>
					<path id="XMLID_48_" style="fill:#258EA5;" d="M200.975,71.704l-23.073-15.76c-3.6-2.459-4.525-7.371-2.066-10.971l3.834-5.613
						c0.513-0.751,1.538-0.944,2.289-0.431l33.389,22.807c0.751,0.513,0.944,1.538,0.431,2.289l-3.834,5.613
						C209.487,73.238,204.576,74.163,200.975,71.704z"/>
					<path id="XMLID_67_" style="fill:#D7D53E;" d="M186.548,68.057L186.548,68.057c-2.021-1.381-2.54-4.138-1.16-6.159l2.5-3.66
						l7.319,4.999l-2.5,3.66C191.327,68.918,188.569,69.438,186.548,68.057z"/>
				</g>
			</g>
			
				<line id="XMLID_65_" style="fill:none;stroke:#161A27;stroke-width:0.7904;stroke-miterlimit:10;" x1="226.122" y1="180.502" x2="160.979" y2="175.281"/>
			
				<rect id="XMLID_45_" x="236.052" y="182.546" transform="matrix(0.843 -0.538 0.538 0.843 -60.6863 159.8361)" style="fill:#14213C;" width="14.754" height="2.635"/>
			<path id="XMLID_3_" style="fill:#14213C;" d="M290.405,171.197c0,2.656-2.153,4.808-4.808,4.808
				c-2.655,0-4.808-2.153-4.808-4.808s2.153-4.808,4.808-4.808C288.253,166.389,290.405,168.541,290.405,171.197z"/>
			<path id="XMLID_34_" style="fill:#D7D53E;" d="M288.89,171.197c0,1.819-1.474,3.293-3.293,3.293
				c-1.819,0-3.293-1.474-3.293-3.293c0-1.819,1.474-3.293,3.293-3.293C287.416,167.904,288.89,169.378,288.89,171.197z"/>
		</g>
		<g id="XMLID_2_">
			<g id="XMLID_25_">
				<path id="XMLID_72_" style="fill:#41ADA3;" d="M158.016,208.625c0.074-0.496,0.124-1,0.124-1.516
					c0-5.668-4.595-10.263-10.263-10.263c-0.375,0-0.744,0.023-1.109,0.062c0.184-0.77,0.292-1.568,0.292-2.395
					c0-5.668-4.595-10.263-10.263-10.263c-3.939,0-7.356,2.222-9.076,5.479c-1.516-0.883-3.272-1.397-5.152-1.397
					c-5.207,0-9.497,3.881-10.163,8.906c-0.886-0.249-1.817-0.392-2.782-0.392c-5.668,0-10.263,4.595-10.263,10.263
					c0,0.516,0.051,1.02,0.124,1.516H158.016z"/>
				<path id="XMLID_26_" style="fill:#9ED5D0;" d="M150.238,208.625c-0.055-0.369-0.092-0.743-0.092-1.127
					c0-4.215,3.417-7.632,7.632-7.632c0.279,0,0.553,0.017,0.825,0.046c-0.137-0.572-0.217-1.166-0.217-1.78
					c0-4.215,3.417-7.632,7.632-7.632c2.929,0,5.47,1.652,6.749,4.074c1.127-0.656,2.433-1.039,3.831-1.039
					c3.872,0,7.062,2.886,7.557,6.622c0.659-0.185,1.351-0.292,2.069-0.292c4.215,0,7.632,3.417,7.632,7.632
					c0,0.384-0.038,0.758-0.092,1.127H150.238z"/>
			</g>
			<g id="XMLID_27_">
				<path id="XMLID_28_" style="fill:#41ADA3;" d="M288.55,208.625c-0.074-0.496-0.124-1-0.124-1.516
					c0-5.668,4.595-10.263,10.263-10.263c0.375,0,0.744,0.023,1.109,0.062c-0.184-0.77-0.292-1.568-0.292-2.395
					c0-5.668,4.595-10.263,10.263-10.263c3.939,0,7.356,2.222,9.076,5.479c1.516-0.883,3.272-1.397,5.152-1.397
					c5.207,0,9.497,3.881,10.163,8.906c0.886-0.249,1.817-0.392,2.782-0.392c5.668,0,10.263,4.595,10.263,10.263
					c0,0.516-0.051,1.02-0.124,1.516H288.55z"/>
				<path id="XMLID_39_" style="fill:#9ED5D0;" d="M296.327,208.625c0.055-0.369,0.092-0.743,0.092-1.127
					c0-4.215-3.417-7.632-7.632-7.632c-0.279,0-0.553,0.017-0.824,0.046c0.137-0.572,0.217-1.166,0.217-1.78
					c0-4.215-3.417-7.632-7.632-7.632c-2.929,0-5.47,1.652-6.749,4.074c-1.127-0.656-2.433-1.039-3.831-1.039
					c-3.872,0-7.062,2.886-7.557,6.622c-0.659-0.185-1.351-0.292-2.069-0.292c-4.215,0-7.632,3.417-7.632,7.632
					c0,0.384,0.038,0.758,0.092,1.127H296.327z"/>
			</g>
		</g>
	</g>
	<g id="XMLID_1_">
		<g id="XMLID_236_">
			<g id="XMLID_292_">
				<circle id="XMLID_246_" style="fill:#14213C;" cx="487.024" cy="177.087" r="26.253"/>
				<circle id="XMLID_250_" style="fill:#41ADA3;" cx="487.024" cy="177.087" r="16.301"/>
				<path id="XMLID_251_" style="fill:#14213C;" d="M492.668,177.087c0,3.117-2.527,5.644-5.644,5.644
					c-3.117,0-5.644-2.527-5.644-5.644s2.527-5.644,5.644-5.644C490.141,171.443,492.668,173.97,492.668,177.087z"/>
				<path id="XMLID_256_" style="fill:#D7D53E;" d="M490.397,177.087c0,1.863-1.51,3.373-3.373,3.373
					c-1.863,0-3.373-1.51-3.373-3.373s1.51-3.373,3.373-3.373C488.887,173.714,490.397,175.224,490.397,177.087z"/>
				<path id="XMLID_255_" style="fill:#14213C;" d="M498.437,178.49l-2.721-0.674c-0.409,0-0.743-0.335-0.743-0.743v-0.537
					c0-0.409,0.334-0.743,0.743-0.743l2.721-0.675c0.681,0,1.239,0.558,1.239,1.239v0.895
					C499.676,177.933,499.118,178.49,498.437,178.49z"/>
				<path id="XMLID_278_" style="fill:#14213C;" d="M497.609,172.596l-2.694,0.777c-0.354,0.204-0.811,0.082-1.015-0.272
					l-0.268-0.465c-0.204-0.354-0.082-0.811,0.272-1.016l2.02-1.945c0.59-0.341,1.352-0.137,1.692,0.453l0.447,0.775
					C498.404,171.494,498.2,172.255,497.609,172.596z"/>
				<path id="XMLID_280_" style="fill:#14213C;" d="M493.946,167.905l-1.945,2.02c-0.204,0.354-0.661,0.477-1.016,0.272
					l-0.465-0.268c-0.354-0.204-0.477-0.661-0.272-1.016l0.777-2.694c0.341-0.59,1.102-0.794,1.692-0.453l0.775,0.447
					C494.082,166.553,494.287,167.315,493.946,167.905z"/>
				<path id="XMLID_281_" style="fill:#14213C;" d="M488.428,165.674l-0.675,2.721c0,0.409-0.335,0.743-0.743,0.743h-0.537
					c-0.409,0-0.743-0.335-0.743-0.743l-0.674-2.721c0-0.682,0.557-1.239,1.239-1.239h0.895
					C487.87,164.436,488.428,164.993,488.428,165.674z"/>
				<path id="XMLID_282_" style="fill:#14213C;" d="M482.533,166.502l0.777,2.694c0.204,0.354,0.082,0.811-0.272,1.015l-0.465,0.268
					c-0.354,0.204-0.811,0.082-1.015-0.272l-1.945-2.02c-0.341-0.59-0.137-1.352,0.454-1.692l0.775-0.447
					C481.431,165.708,482.193,165.912,482.533,166.502z"/>
				<path id="XMLID_283_" style="fill:#14213C;" d="M477.842,170.165l2.02,1.945c0.354,0.204,0.477,0.661,0.272,1.016l-0.268,0.465
					c-0.204,0.354-0.661,0.477-1.016,0.272l-2.694-0.777c-0.59-0.341-0.794-1.102-0.454-1.692l0.447-0.775
					C476.491,170.029,477.252,169.824,477.842,170.165z"/>
				<path id="XMLID_285_" style="fill:#14213C;" d="M475.612,175.684l2.721,0.674c0.409,0,0.743,0.335,0.743,0.743v0.537
					c0,0.409-0.335,0.743-0.743,0.743l-2.721,0.675c-0.681,0-1.239-0.558-1.239-1.239v-0.895
					C474.373,176.241,474.93,175.684,475.612,175.684z"/>
				<path id="XMLID_286_" style="fill:#14213C;" d="M476.439,181.578l2.694-0.777c0.354-0.204,0.811-0.082,1.015,0.272l0.268,0.465
					c0.204,0.354,0.082,0.811-0.272,1.016l-2.02,1.945c-0.59,0.341-1.352,0.137-1.692-0.453l-0.447-0.775
					C475.645,182.68,475.849,181.918,476.439,181.578z"/>
				<path id="XMLID_287_" style="fill:#14213C;" d="M480.103,186.269l1.945-2.02c0.204-0.354,0.661-0.476,1.016-0.272l0.465,0.269
					c0.354,0.204,0.477,0.661,0.272,1.015l-0.777,2.694c-0.341,0.59-1.102,0.794-1.692,0.453l-0.775-0.447
					C479.966,187.62,479.762,186.859,480.103,186.269z"/>
				<path id="XMLID_288_" style="fill:#14213C;" d="M485.621,188.499l0.675-2.721c0-0.409,0.335-0.743,0.743-0.743h0.537
					c0.409,0,0.743,0.335,0.743,0.743l0.674,2.721c0,0.682-0.557,1.239-1.239,1.239h-0.895
					C486.178,189.738,485.621,189.181,485.621,188.499z"/>
				<path id="XMLID_289_" style="fill:#14213C;" d="M491.515,187.672l-0.777-2.694c-0.204-0.354-0.082-0.811,0.272-1.016
					l0.465-0.268c0.354-0.204,0.811-0.082,1.015,0.272l1.945,2.02c0.341,0.59,0.137,1.352-0.454,1.693l-0.775,0.447
					C492.617,188.466,491.856,188.262,491.515,187.672z"/>
				<path id="XMLID_291_" style="fill:#14213C;" d="M496.206,184.008l-2.02-1.945c-0.354-0.204-0.477-0.661-0.272-1.016l0.268-0.465
					c0.204-0.354,0.661-0.477,1.016-0.272l2.694,0.777c0.59,0.341,0.794,1.102,0.453,1.693l-0.447,0.775
					C497.558,184.145,496.796,184.349,496.206,184.008z"/>
			</g>
			<g id="XMLID_294_">
				<circle id="XMLID_310_" style="fill:#14213C;" cx="593.245" cy="177.087" r="26.253"/>
				<circle id="XMLID_309_" style="fill:#41ADA3;" cx="593.245" cy="177.087" r="16.301"/>
				<path id="XMLID_308_" style="fill:#14213C;" d="M598.889,177.087c0,3.117-2.527,5.644-5.644,5.644s-5.644-2.527-5.644-5.644
					s2.527-5.644,5.644-5.644S598.889,173.97,598.889,177.087z"/>
				<circle id="XMLID_307_" style="fill:#D7D53E;" cx="593.245" cy="177.087" r="3.373"/>
				<path id="XMLID_306_" style="fill:#14213C;" d="M604.657,178.49l-2.721-0.674c-0.409,0-0.743-0.335-0.743-0.743v-0.537
					c0-0.409,0.335-0.743,0.743-0.743l2.721-0.675c0.681,0,1.239,0.558,1.239,1.239v0.895
					C605.896,177.933,605.338,178.49,604.657,178.49z"/>
				<path id="XMLID_305_" style="fill:#14213C;" d="M603.83,172.596l-2.694,0.777c-0.354,0.204-0.811,0.082-1.016-0.272
					l-0.268-0.465c-0.204-0.354-0.082-0.811,0.272-1.016l2.02-1.945c0.59-0.341,1.352-0.137,1.692,0.453l0.447,0.775
					C604.624,171.494,604.42,172.255,603.83,172.596z"/>
				<path id="XMLID_304_" style="fill:#14213C;" d="M600.166,167.905l-1.945,2.02c-0.204,0.354-0.661,0.477-1.016,0.272
					l-0.465-0.268c-0.354-0.204-0.477-0.661-0.272-1.016l0.776-2.694c0.341-0.59,1.102-0.794,1.693-0.453l0.775,0.447
					C600.303,166.553,600.507,167.315,600.166,167.905z"/>
				<path id="XMLID_303_" style="fill:#14213C;" d="M594.648,165.674l-0.675,2.721c0,0.409-0.335,0.743-0.743,0.743h-0.537
					c-0.409,0-0.743-0.335-0.743-0.743l-0.674-2.721c0-0.682,0.557-1.239,1.239-1.239h0.895
					C594.09,164.436,594.648,164.993,594.648,165.674z"/>
				<path id="XMLID_302_" style="fill:#14213C;" d="M588.754,166.502l0.777,2.694c0.204,0.354,0.082,0.811-0.272,1.015l-0.465,0.268
					c-0.354,0.204-0.811,0.082-1.016-0.272l-1.945-2.02c-0.341-0.59-0.137-1.352,0.453-1.692l0.775-0.447
					C587.651,165.708,588.413,165.912,588.754,166.502z"/>
				<path id="XMLID_301_" style="fill:#14213C;" d="M584.063,170.165l2.02,1.945c0.354,0.204,0.477,0.661,0.272,1.016l-0.268,0.465
					c-0.204,0.354-0.661,0.477-1.016,0.272l-2.694-0.777c-0.59-0.341-0.794-1.102-0.453-1.692l0.447-0.775
					C582.711,170.029,583.473,169.824,584.063,170.165z"/>
				<path id="XMLID_300_" style="fill:#14213C;" d="M581.832,175.684l2.721,0.674c0.409,0,0.743,0.335,0.743,0.743v0.537
					c0,0.409-0.335,0.743-0.743,0.743l-2.721,0.675c-0.682,0-1.239-0.558-1.239-1.239v-0.895
					C580.593,176.241,581.151,175.684,581.832,175.684z"/>
				<path id="XMLID_299_" style="fill:#14213C;" d="M582.659,181.578l2.694-0.777c0.354-0.204,0.811-0.082,1.016,0.272l0.268,0.465
					c0.204,0.354,0.082,0.811-0.272,1.016l-2.02,1.945c-0.59,0.341-1.352,0.137-1.693-0.453l-0.447-0.775
					C581.865,182.68,582.069,181.918,582.659,181.578z"/>
				<path id="XMLID_298_" style="fill:#14213C;" d="M586.323,186.269l1.945-2.02c0.205-0.354,0.661-0.476,1.016-0.272l0.465,0.269
					c0.354,0.204,0.477,0.661,0.272,1.015l-0.777,2.694c-0.341,0.59-1.102,0.794-1.693,0.453l-0.775-0.447
					C586.186,187.62,585.982,186.859,586.323,186.269z"/>
				<path id="XMLID_297_" style="fill:#14213C;" d="M591.841,188.499l0.675-2.721c0-0.409,0.334-0.743,0.743-0.743h0.537
					c0.409,0,0.743,0.335,0.743,0.743l0.675,2.721c0,0.682-0.557,1.239-1.239,1.239h-0.895
					C592.399,189.738,591.841,189.181,591.841,188.499z"/>
				<path id="XMLID_296_" style="fill:#14213C;" d="M597.735,187.672l-0.776-2.694c-0.205-0.354-0.082-0.811,0.272-1.016
					l0.465-0.268c0.354-0.204,0.811-0.082,1.016,0.272l1.945,2.02c0.341,0.59,0.137,1.352-0.454,1.693l-0.775,0.447
					C598.838,188.466,598.076,188.262,597.735,187.672z"/>
				<path id="XMLID_295_" style="fill:#14213C;" d="M602.426,184.008l-2.02-1.945c-0.354-0.204-0.477-0.661-0.272-1.016l0.268-0.465
					c0.204-0.354,0.661-0.477,1.015-0.272l2.694,0.777c0.59,0.341,0.794,1.102,0.453,1.693l-0.447,0.775
					C603.778,184.145,603.016,184.349,602.426,184.008z"/>
			</g>
			<g id="XMLID_238_">
				<path id="XMLID_284_" style="fill:#D7D53E;" d="M582.382,101.665c-0.508-0.12-1.035-0.192-1.581-0.192
					c-3.859,0-6.987,3.128-6.987,6.987s3.128,6.987,6.987,6.987c0.545,0,1.072-0.072,1.581-0.192V101.665z"/>
				<path id="XMLID_237_" style="fill:#D7D53E;" d="M579.704,101.59h-8.184l-2.486,12.95c0,0,7.153,5.559,5.485,22.937
					c-2.712,28.268-29.806,26.031-44.724,18.262c-14.918-7.77-16.129-29.139-16.129-29.139H475.75c0,0-22.377,16.31-22.377,48.01
					h122.789l8.923-37.132l-7.661-26.149L579.704,101.59z"/>
			</g>
			<g id="XMLID_247_">
				<polygon id="XMLID_275_" style="fill:#E0C09C;" points="525.052,61.69 519.47,67.709 527.233,73.989 530.896,66.575 				"/>
				<path id="XMLID_274_" style="fill:#E0C09C;" d="M528.834,70.749l2.062-4.174l-5.844-4.884l-0.026,0.028
					c0.135,0.877,0.385,1.731,0.753,2.534l-0.009,0C526,67.005,527.218,69.19,528.834,70.749z"/>
				<g id="XMLID_266_">
					<circle id="XMLID_273_" style="fill:#E0C09C;" cx="532.321" cy="57.245" r="9.485"/>
					<path id="XMLID_272_" style="fill:#E0C09C;" d="M541.789,57.802c0,0,0.355,9.025-2.976,11.004
						c-3.331,1.979-10.056,1.096-12.98-4.643L541.789,57.802z"/>
					<path id="XMLID_271_" style="fill:none;stroke:#41ADA3;stroke-width:0.2896;stroke-miterlimit:10;" d="M534.662,61.517
						c0,0-4.972-4.586-7.289-3.91c-2.317,0.676-1.979,3.138,0,4.103c2.25,1.098,6.139,1.825,6.139,1.825"/>
					<path id="XMLID_270_" style="fill:#41ADA3;" d="M541.806,59.393c0,0,0.609,8.266-3.832,9.955c0,0-4.471-1.612-4.471-5.566
						S538.958,58.91,541.806,59.393z"/>
					<path id="XMLID_269_" style="fill:#EFDFCD;" d="M538.517,68.99c0,0-4.471-1.497-4.471-5.17c0-3.457,4.831-4.415,7.774-4.141
						c-0.007-0.18-0.014-0.285-0.014-0.285c-2.848-0.483-8.303,0.434-8.303,4.389s4.471,5.566,4.471,5.566
						c0.372-0.142,0.706-0.333,1.011-0.558C538.835,68.864,538.68,68.932,538.517,68.99z"/>
					<path id="XMLID_314_" style="fill:#411600;" d="M541.965,50.491c-0.353-0.411-0.691-0.833-0.971-1.288
						c-2.876-1.901-5.682-4.091-7.892-6.535c-0.089,0.062-0.177,0.124-0.257,0.197c-0.329-0.201-0.714-0.318-1.128-0.318
						c-0.478,0-0.919,0.157-1.278,0.419c-0.351-0.319-0.817-0.515-1.329-0.515c-0.841,0-1.558,0.526-1.844,1.266
						c-0.035-0.016-0.075-0.023-0.11-0.037c-0.172,0.782-0.757,1.489-1.763,1.572c0.558-0.047,0.125,0.025-0.056,0.249
						c-0.206,0.255-0.487,0.478-0.722,0.711c-0.415,0.415-0.836,0.779-1.308,1.131c-0.812,0.605-1.811,1.094-2.574,1.793
						c0.093,0.155,0.197,0.303,0.32,0.435c-1.01,0.325-1.742,1.271-1.742,2.389c0,0.612,0.22,1.172,0.584,1.608
						c-0.584,0.384-0.97,1.044-0.97,1.795c0,0.841,0.484,1.567,1.188,1.919c-0.913,0.294-1.574,1.149-1.574,2.16
						c0,1.253,1.016,2.269,2.269,2.269c0.22,0,0.432-0.033,0.633-0.091c0.053,0.885,0.786,1.588,1.684,1.588
						c0.434,0,0.828-0.165,1.127-0.433c0.296,0.268,0.687,0.433,1.118,0.433c0.92,0,1.665-0.746,1.665-1.665
						c0-0.851-0.638-1.551-1.461-1.652c0.251-0.351,0.399-0.78,0.399-1.245c0-0.007-0.001-0.014-0.001-0.022
						c0.208,0.06,0.426,0.094,0.653,0.094c1.293,0,2.341-1.048,2.341-2.341c0-0.015-0.002-0.031-0.002-0.046
						c0.187,0.076,0.391,0.118,0.606,0.118c0.893,0,1.617-0.724,1.617-1.617c0-0.158-0.024-0.311-0.066-0.455
						c0.246,0.12,0.522,0.19,0.814,0.19c1.026,0,1.859-0.832,1.859-1.858c0-0.042-0.004-0.083-0.006-0.124
						c0.01,0,0.02,0.003,0.03,0.003c0.513,0,0.953-0.294,1.174-0.719c0.288,0.266,0.672,0.43,1.095,0.43
						c0.435,0,0.829-0.173,1.119-0.452c0.296,0.194,0.649,0.307,1.029,0.307c0.304,0,0.591-0.074,0.845-0.202
						c0.402,0.364,0.935,0.588,1.52,0.588c1.01,0,1.851-0.666,2.143-1.578C542.443,50.876,542.167,50.726,541.965,50.491z"/>
					<path id="XMLID_267_" style="fill:#E0C09C;" d="M528.387,57.802c0-1.209-2.076-2.512-3.089-0.557
						c-1.014,1.955-0.048,5.141,2.365,4.127"/>
					<g id="XMLID_259_">
						<path id="XMLID_333_" style="fill:#258EA5;" d="M524.967,61.019v-2.637c0-3.214,2.385-5.819,5.326-5.819h13.394
							c-1.592-5.938-6.598-10.284-12.544-10.307c-6.922-0.027-12.79,6.012-13.158,13.564c-0.113,2.319,0.283,4.522,1.072,6.494
							c0.488,1.22,1.603,1.997,2.822,1.997h0.062C523.616,64.312,524.967,62.838,524.967,61.019z"/>
						<path id="XMLID_261_" style="fill:#258EA5;" d="M534.263,50.852c0,0,6.105,3.653,11.01,3.063
							c4.106-0.494-2.758-3.063-2.758-3.063H534.263z"/>
					</g>
				</g>
				<path id="XMLID_265_" style="fill:#304782;" d="M519.47,67.709c0,0-19.364,9.769-29.133,36.983l31.401,9.769
					c0,0-0.349-15.875,4.71-24.772c5.059-8.897,0.785-15.7,0.785-15.7L519.47,67.709z"/>
				<path id="XMLID_264_" style="fill:#D7D53E;" d="M508.892,69.125c0,0,25.654,4.354,10.577,21.96
					c-4.318,5.043-15.082,5.084-26.546,6.083l-1.49,2.182c0,0,23.986,2.379,31.664-7.45c6.906-8.84,9.487-18.421-12.27-25.608
					L508.892,69.125z"/>
				<path id="XMLID_263_" style="fill:#E0C09C;" d="M530.16,80.207c0,0,14.719,14.667,36.673,22.314l-2.13,4.323
					c0,0-19.555-1.99-37.693-15.408L530.16,80.207z"/>
				<path id="XMLID_262_" style="fill:#304782;" d="M528.104,96.213l-11.641-10.029c-3.024-2.606-3.364-7.17-0.758-10.194l0,0
					c2.606-3.025,7.17-3.364,10.194-0.758L537.54,85.26L528.104,96.213z"/>
				<g id="XMLID_248_">
					
						<rect id="XMLID_260_" x="463.629" y="46.371" transform="matrix(0.8258 0.564 -0.564 0.8258 123.9176 -261.594)" style="fill:#41ADA3;" width="43.432" height="46.782"/>
					<g id="XMLID_253_">
						
							<rect id="XMLID_257_" x="467.972" y="45.011" transform="matrix(0.8258 0.564 -0.564 0.8258 118.6849 -254.442)" style="fill:#D7D53E;" width="6.361" height="39.716"/>
						
							<rect id="XMLID_254_" x="491.885" y="61.345" transform="matrix(0.8258 0.564 -0.564 0.8258 132.0646 -265.0836)" style="fill:#D7D53E;" width="6.361" height="39.716"/>
					</g>
					<path id="XMLID_252_" style="fill:#258EA5;" d="M501.55,71.922l-24.112-16.47c-3.762-2.57-4.729-7.703-2.159-11.465
						l4.007-5.866c0.536-0.785,1.607-0.987,2.392-0.451l34.893,23.834c0.785,0.536,0.986,1.607,0.45,2.392l-4.007,5.866
						C510.445,73.525,505.312,74.492,501.55,71.922z"/>
					<path id="XMLID_249_" style="fill:#D7D53E;" d="M486.473,68.111L486.473,68.111c-2.112-1.443-2.655-4.324-1.212-6.437
						l2.612-3.824l7.648,5.224l-2.612,3.824C491.467,69.01,488.585,69.553,486.473,68.111z"/>
				</g>
				<path id="XMLID_235_" style="fill:#E0C09C;" d="M574.662,106.873c-0.499,2.135-3.306,2.246-6.415,1.519
					c-3.11-0.726-5.344-2.015-4.845-4.15c0.499-2.135,3.424-3.277,6.534-2.551C573.044,102.418,575.161,104.738,574.662,106.873z"/>
			</g>
			<path id="XMLID_240_" style="fill:#14213C;" d="M490.122,124.821v-4.773c0-1.051,0.885-1.884,1.933-1.822l29.389,1.745
				c0.964,0.057,1.717,0.856,1.717,1.822v3.028c0,1.008-0.817,1.825-1.825,1.825h-29.389
				C490.939,126.646,490.122,125.828,490.122,124.821z"/>
			<rect id="XMLID_239_" x="478.764" y="125.269" style="fill:#14213C;" width="7.159" height="1.377"/>
			<rect id="XMLID_243_" x="477.456" y="123.892" style="fill:#14213C;" width="9.774" height="1.725"/>
			<g id="XMLID_242_">
				<path id="XMLID_290_" style="fill:#D7D53E;" d="M524.144,174.609c-1.346-19.899-17.903-35.626-38.143-35.626
					c-20.24,0-36.797,15.727-38.143,35.626H524.144z"/>
				<path id="XMLID_244_" style="fill:#D7D53E;" d="M483.07,141.914c19.234,0,35.132,14.206,37.82,32.695h3.253
					c-1.346-19.899-17.903-35.626-38.143-35.626c-11.324,0-21.492,4.925-28.492,12.747
					C464.282,145.633,473.238,141.914,483.07,141.914z"/>
			</g>
			<path id="XMLID_241_" style="fill:#14213C;" d="M491.281,105.134c0,0-6.672,10.594,3.133,16.934
				c9.805,6.34,30.233,11.539,32.934,13.467c3.122,2.228,6.499,8.194,8.892,25.445h9.156c0,0,0.338-18.707-3.189-29.575
				c-3.527-10.868-26.271-18.749-26.271-18.749L491.281,105.134z"/>
			<polygon id="XMLID_245_" style="fill:#14213C;" points="544.573,160.567 558.283,169.039 535.878,169.039 536.547,160.567 			"/>
			<path id="XMLID_316_" style="fill:#D7D53E;" d="M580.174,174.609L611,154.47c-5-5.99-12.52-9.804-20.933-9.804
				c-15.054,0-27.258,12.204-27.258,27.258c0,0.907,0.055,1.8,0.142,2.684H580.174z"/>
			<path id="XMLID_293_" style="fill:#14213C;" d="M571.996,106.637c0,1.425-1.156,2.581-2.581,2.581
				c-1.426,0-2.581-1.156-2.581-2.581c0-1.426,1.156-2.581,2.581-2.581C570.84,104.055,571.996,105.211,571.996,106.637z"/>
			<rect id="XMLID_258_" x="582.382" y="101.665" style="fill:#14213C;" width="1.664" height="13.48"/>
		</g>
		<g id="XMLID_40_">
			<g id="XMLID_49_">
				<path id="XMLID_53_" style="fill:#41ADA3;" d="M473.849,208.625c0.074-0.496,0.124-1,0.124-1.516
					c0-5.668-4.595-10.263-10.263-10.263c-0.375,0-0.744,0.023-1.109,0.062c0.184-0.77,0.292-1.568,0.292-2.395
					c0-5.668-4.595-10.263-10.263-10.263c-3.939,0-7.356,2.222-9.076,5.479c-1.516-0.883-3.272-1.397-5.152-1.397
					c-5.207,0-9.497,3.881-10.163,8.906c-0.886-0.249-1.817-0.392-2.783-0.392c-5.668,0-10.263,4.595-10.263,10.263
					c0,0.516,0.051,1.02,0.124,1.516H473.849z"/>
				<path id="XMLID_51_" style="fill:#9ED5D0;" d="M466.072,208.625c-0.055-0.369-0.092-0.743-0.092-1.127
					c0-4.215,3.417-7.632,7.632-7.632c0.279,0,0.553,0.017,0.825,0.046c-0.137-0.572-0.217-1.166-0.217-1.78
					c0-4.215,3.417-7.632,7.632-7.632c2.929,0,5.47,1.652,6.749,4.074c1.127-0.656,2.433-1.039,3.831-1.039
					c3.872,0,7.062,2.886,7.557,6.622c0.659-0.185,1.351-0.292,2.069-0.292c4.215,0,7.632,3.417,7.632,7.632
					c0,0.384-0.038,0.758-0.092,1.127H466.072z"/>
			</g>
			<g id="XMLID_43_">
				<path id="XMLID_46_" style="fill:#41ADA3;" d="M597.883,208.625c-0.074-0.496-0.124-1-0.124-1.516
					c0-5.668,4.595-10.263,10.263-10.263c0.375,0,0.744,0.023,1.109,0.062c-0.184-0.77-0.292-1.568-0.292-2.395
					c0-5.668,4.595-10.263,10.263-10.263c3.939,0,7.356,2.222,9.076,5.479c1.515-0.883,3.272-1.397,5.152-1.397
					c5.207,0,9.497,3.881,10.163,8.906c0.886-0.249,1.817-0.392,2.782-0.392c5.668,0,10.263,4.595,10.263,10.263
					c0,0.516-0.051,1.02-0.124,1.516H597.883z"/>
				<path id="XMLID_44_" style="fill:#9ED5D0;" d="M605.661,208.625c0.055-0.369,0.092-0.743,0.092-1.127
					c0-4.215-3.417-7.632-7.632-7.632c-0.279,0-0.553,0.017-0.825,0.046c0.137-0.572,0.218-1.166,0.218-1.78
					c0-4.215-3.417-7.632-7.632-7.632c-2.929,0-5.47,1.652-6.749,4.074c-1.127-0.656-2.433-1.039-3.831-1.039
					c-3.872,0-7.062,2.886-7.557,6.622c-0.659-0.185-1.351-0.292-2.069-0.292c-4.215,0-7.632,3.417-7.632,7.632
					c0,0.384,0.038,0.758,0.092,1.127H605.661z"/>
			</g>
		</g>
	</g>
	<g id="XMLID_58_">
		<g id="XMLID_268_">
			<polygon id="XMLID_410_" style="fill:#14213C;" points="516.571,328.828 506.395,328.828 495.922,344.142 522.203,344.142 			"/>
			<path id="XMLID_407_" style="fill:#14213C;" d="M492.391,340.761l-0.232-0.156c-0.707-0.476-0.896-1.445-0.42-2.152
				l13.631-20.063c0.476-0.707,1.445-0.897,2.152-0.42l0.232,0.156c0.707,0.476,0.897,1.445,0.42,2.152l-13.631,20.063
				C494.066,341.048,493.098,341.237,492.391,340.761z"/>
			<polygon id="XMLID_344_" style="fill:#E0C09C;" points="450.041,305.938 444.7,311.697 452.128,317.706 455.634,310.612 			"/>
			<path id="XMLID_343_" style="fill:#E0C09C;" d="M453.66,314.606l1.973-3.994l-5.592-4.674l-0.025,0.027
				c0.13,0.839,0.369,1.657,0.721,2.425l-0.009,0C450.949,311.023,452.115,313.114,453.66,314.606z"/>
			<g id="XMLID_335_">
				
					<ellipse id="XMLID_342_" transform="matrix(0.1499 -0.9887 0.9887 0.1499 90.2114 708.2894)" style="fill:#E0C09C;" cx="456.997" cy="301.684" rx="9.077" ry="9.077"/>
				<path id="XMLID_341_" style="fill:#E0C09C;" d="M466.057,302.217c0,0,0.339,8.636-2.848,10.53
					c-3.187,1.894-9.622,1.049-12.42-4.443L466.057,302.217z"/>
				<path id="XMLID_340_" style="fill:none;stroke:#41ADA3;stroke-width:0.2771;stroke-miterlimit:10;" d="M459.237,305.772
					c0,0-4.758-4.388-6.975-3.742s-1.894,3.002,0,3.926c2.154,1.051,5.874,1.747,5.874,1.747"/>
				<path id="XMLID_339_" style="fill:#41ADA3;" d="M466.074,303.74c0,0,0.583,7.91-3.667,9.526c0,0-4.278-1.542-4.278-5.326
					C458.129,304.155,463.348,303.278,466.074,303.74z"/>
				<path id="XMLID_338_" style="fill:#EFDFCD;" d="M462.926,312.923c0,0-4.278-1.432-4.278-4.947c0-3.308,4.623-4.224,7.439-3.963
					c-0.007-0.173-0.014-0.273-0.014-0.273c-2.725-0.462-7.945,0.416-7.945,4.2c0,3.784,4.278,5.326,4.278,5.326
					c0.356-0.135,0.676-0.318,0.967-0.534C463.23,312.802,463.082,312.867,462.926,312.923z"/>
				<path id="XMLID_337_" style="fill:#411600;" d="M465.627,292.959c0.109-0.257,0.169-0.54,0.169-0.837
					c0-1.186-0.962-2.148-2.148-2.148c-0.35,0-0.679,0.085-0.97,0.233c-0.27-0.607-0.852-1.042-1.544-1.103
					c-0.2-1.005-1.087-1.764-2.151-1.764c-0.573,0-1.094,0.222-1.484,0.582c-0.315-0.192-0.683-0.305-1.079-0.305
					c-0.458,0-0.88,0.15-1.223,0.401c-0.336-0.305-0.781-0.493-1.271-0.493c-0.805,0-1.491,0.503-1.765,1.211
					c-0.272-0.124-0.573-0.195-0.891-0.195c-1.155,0-2.094,0.912-2.143,2.054c-0.344-0.19-0.739-0.299-1.16-0.299
					c-1.327,0-2.402,1.075-2.402,2.402c0,0.635,0.248,1.211,0.65,1.64c-0.967,0.311-1.667,1.216-1.667,2.286
					c0,0.586,0.21,1.122,0.558,1.539c-0.559,0.367-0.928,0.999-0.928,1.718c0,0.805,0.463,1.499,1.137,1.837
					c-0.874,0.281-1.506,1.099-1.506,2.066c0,1.199,0.972,2.171,2.171,2.171c0.21,0,0.413-0.031,0.605-0.087
					c0.051,0.847,0.752,1.519,1.612,1.519c0.415,0,0.792-0.158,1.078-0.415c0.283,0.257,0.657,0.415,1.069,0.415
					c0.88,0,1.594-0.714,1.594-1.594c0-0.814-0.611-1.484-1.398-1.581c0.24-0.336,0.382-0.746,0.382-1.191
					c0-0.007-0.001-0.014-0.001-0.021c0.199,0.057,0.408,0.09,0.625,0.09c1.237,0,2.24-1.003,2.24-2.24
					c0-0.015-0.002-0.029-0.002-0.044c0.179,0.073,0.375,0.113,0.58,0.113c0.855,0,1.547-0.693,1.547-1.547
					c0-0.152-0.023-0.297-0.063-0.436c0.236,0.115,0.499,0.182,0.779,0.182c0.982,0,1.778-0.796,1.778-1.778
					c0-0.04-0.003-0.079-0.006-0.118c0.01,0,0.019,0.003,0.029,0.003c0.491,0,0.911-0.281,1.123-0.688
					c0.276,0.254,0.643,0.411,1.048,0.411c0.416,0,0.793-0.165,1.071-0.432c0.283,0.185,0.621,0.294,0.984,0.294
					c0.291,0,0.565-0.071,0.809-0.193c0.385,0.349,0.894,0.563,1.455,0.563c1.199,0,2.171-0.972,2.171-2.171
					C467.09,294.059,466.478,293.253,465.627,292.959z"/>
				<path id="XMLID_336_" style="fill:#E0C09C;" d="M453.232,302.217c0-1.157-1.986-2.404-2.956-0.533
					c-0.97,1.871-0.046,4.919,2.263,3.949"/>
			</g>
			<path id="XMLID_334_" style="fill:#304782;" d="M444.7,311.697c0,0-18.529,9.348-27.877,35.389l30.047,9.348
				c0,0-0.334-15.191,4.507-23.704s0.751-15.024,0.751-15.024L444.7,311.697z"/>
			<path id="XMLID_331_" style="fill:#E0C09C;" d="M454.839,319.993c0,0,17.447,9.536,39.664,10.687l-0.801,4.541
				c0,0-18.498,3.404-38.752-4.068L454.839,319.993z"/>
			<path id="XMLID_330_" style="fill:#304782;" d="M457.233,335.247l-13.379-6.099c-3.476-1.585-5.009-5.687-3.425-9.163l0,0
				c1.585-3.476,5.687-5.009,9.163-3.425l13.379,6.099L457.233,335.247z"/>
			<path id="XMLID_313_" style="fill:#41ADA3;" d="M536.118,325.592l-23.296-70.369H408.758v144.641h154.818v-36.211
				c0-1.973-0.662-3.889-1.879-5.442L536.118,325.592z M485.366,340.492l-4.857-8.816h-49.621v-54.302
				c0-2.194,1.778-3.972,3.972-3.972h58.789c1.736,0,3.271,1.127,3.79,2.784l20.157,64.306H485.366z"/>
			<path id="XMLID_276_" style="fill:#304782;" d="M506.383,245.739h-91.092c-3.608,0-6.533,2.925-6.533,6.533v2.952h104.158v-2.952
				C512.916,248.663,509.991,245.739,506.383,245.739z"/>
			<polygon id="XMLID_328_" style="fill:#304782;" points="408.758,264.906 516.028,264.906 515.897,264.51 408.758,264.51 			"/>
			<path id="XMLID_325_" style="fill:#258EA5;" d="M532.123,344.25l-27.027-79.345l-88.274-0.198v116.157
				c0,4.382,3.552,7.934,7.934,7.934h67.603c3.377,0,6.616-1.342,9.005-3.73l27.709-27.709
				C532.505,353.929,533.688,348.845,532.123,344.25z M430.889,331.676v-54.302c0-2.194,1.778-3.972,3.972-3.972h58.789
				c1.736,0,3.271,1.127,3.79,2.784l20.157,64.306h-32.23l-4.857-8.816H430.889z"/>
			<path id="XMLID_279_" style="fill:#14213C;" d="M442.439,341.508h-15.676c-0.946,0-1.712-0.767-1.712-1.712l0,0
				c0-0.946,0.767-1.712,1.712-1.712h15.676c0.946,0,1.713,0.767,1.713,1.712l0,0C444.152,340.741,443.385,341.508,442.439,341.508z
				"/>
			<path id="XMLID_311_" style="fill:#D7D53E;" d="M404.017,427.529h161.001c4.09,0,7.405-3.315,7.405-7.405v-16.805
				c0-4.09-3.315-7.405-7.405-7.405H404.017c-4.09,0-7.405,3.315-7.405,7.405v16.805
				C396.611,424.213,399.927,427.529,404.017,427.529z"/>
			<g id="XMLID_320_">
				<path id="XMLID_315_" style="fill:#14213C;" d="M551.019,368.447h-16.697c-0.978,0-1.778-0.8-1.778-1.778l0,0
					c0-0.978,0.8-1.778,1.778-1.778h16.697c0.978,0,1.778,0.8,1.778,1.778l0,0C552.797,367.647,551.997,368.447,551.019,368.447z"/>
				<path id="XMLID_324_" style="fill:#14213C;" d="M551.019,373.782h-23.613c-0.978,0-1.778-0.8-1.778-1.778l0,0
					c0-0.978,0.8-1.778,1.778-1.778h23.613c0.978,0,1.778,0.8,1.778,1.778l0,0C552.797,372.982,551.997,373.782,551.019,373.782z"/>
				<path id="XMLID_329_" style="fill:#14213C;" d="M551.019,379.117h-29.01c-0.978,0-1.778-0.8-1.778-1.778l0,0
					c0-0.978,0.8-1.778,1.778-1.778h29.01c0.978,0,1.778,0.8,1.778,1.778l0,0C552.797,378.317,551.997,379.117,551.019,379.117z"/>
				<path id="XMLID_332_" style="fill:#14213C;" d="M551.019,384.452h-29.01c-0.978,0-1.778-0.8-1.778-1.778l0,0
					c0-0.978,0.8-1.778,1.778-1.778h29.01c0.978,0,1.778,0.8,1.778,1.778l0,0C552.797,383.652,551.997,384.452,551.019,384.452z"/>
			</g>
			<path id="XMLID_359_" style="opacity:0.5;fill:#14213C;" d="M531.226,370.225h-3.82c-0.978,0-1.778,0.8-1.778,1.778
				s0.8,1.778,1.778,1.778h3.82c-0.978,0-1.778-0.8-1.778-1.778S530.248,370.225,531.226,370.225z M536.364,366.668
				c0-0.978,0.8-1.778,1.778-1.778h-3.82c-0.978,0-1.778,0.8-1.778,1.778c0,0.978,0.8,1.778,1.778,1.778h3.82
				C537.164,368.447,536.364,367.647,536.364,366.668z M525.829,375.56h-3.82c-0.978,0-1.778,0.8-1.778,1.778
				c0,0.978,0.8,1.778,1.778,1.778h3.82c-0.978,0-1.778-0.8-1.778-1.778C524.051,376.361,524.851,375.56,525.829,375.56z
				 M525.829,380.896h-3.82c-0.978,0-1.778,0.8-1.778,1.778c0,0.978,0.8,1.778,1.778,1.778h3.82c-0.978,0-1.778-0.8-1.778-1.778
				C524.051,381.696,524.851,380.896,525.829,380.896z"/>
			<rect id="XMLID_345_" x="393.567" y="403.318" style="fill:#14213C;" width="3.045" height="17.294"/>
			<path id="XMLID_347_" style="fill:#D7D53E;" d="M186.39,427.529h200.521c4.09,0,7.405-3.315,7.405-7.405v-16.805
				c0-4.09-3.316-7.405-7.405-7.405H186.39c-4.09,0-7.405,3.315-7.405,7.405v16.805C178.984,424.213,182.3,427.529,186.39,427.529z"
				/>
			<rect id="XMLID_346_" x="186.863" y="392.356" style="fill:#14213C;" width="199.574" height="3.557"/>
			<path id="XMLID_348_" style="fill:#41ADA3;" d="M391.534,392.356H187.3c-5.37,0-9.723-4.353-9.723-9.723V255.462
				c0-5.37,4.353-9.723,9.723-9.723h204.234c5.37,0,9.723,4.353,9.723,9.723v127.171
				C401.257,388.003,396.904,392.356,391.534,392.356z"/>
			<path id="XMLID_372_" style="fill:#FFFFFF;" d="M562.447,403.29h4.87c0.942,0,1.713-0.771,1.713-1.712l0,0
				c0-0.942-0.771-1.712-1.713-1.712h-4.87c-0.942,0-1.713,0.771-1.713,1.712l0,0C560.734,402.519,561.505,403.29,562.447,403.29z"
				/>
			<path id="XMLID_408_" style="fill:#FFFFFF;" d="M530.074,403.29h27.364c0.942,0,1.713-0.771,1.713-1.712l0,0
				c0-0.942-0.771-1.712-1.713-1.712h-27.364c-0.942,0-1.713,0.771-1.713,1.712l0,0C528.361,402.519,529.132,403.29,530.074,403.29z
				"/>
			
				<line id="XMLID_409_" style="fill:none;stroke:#14213C;stroke-width:2.3712;stroke-miterlimit:10;" x1="499.527" y1="330.032" x2="505.67" y2="334.732"/>
			<path id="XMLID_411_" style="fill:#E0C09C;" d="M493.09,331.562l5.928-6.191h3.402c0.381,0,0.69,0.309,0.69,0.69l0,0
				c0,0.342-0.25,0.632-0.588,0.682l-0.894,0.134l0.98,0.997c0.274,0.278,0.301,0.715,0.065,1.026l0,0
				c-0.221,0.291-0.614,0.39-0.947,0.24l-0.691-0.312l0.099,1.408l-1.185,1.037c0,0-1.897,3.794-6.247,3.947L493.09,331.562z"/>
			<polygon id="XMLID_351_" style="opacity:0.4;fill:#258EA5;" points="485.366,340.492 517.596,340.492 510.087,316.535 
				430.889,307.389 430.889,331.676 480.51,331.676 			"/>
			<path id="XMLID_424_" style="fill:#D7D53E;" d="M401.257,382.633v-6.372c-21.996-12.888-44.82-23.955-68.729-33.376
				c8.039-2.288,16.207-4.322,24.38-6.075c-26.413-11.556-53.403-20.781-81.351-27.873c6.238-2.53,10.424-4.129,16.725-6.396
				c-33.184-2.799-66.054-2.559-99.184,0.799c-0.084,0.325-0.168,0.651-0.252,0.977c22.17,4.063,43.739,9.451,65.217,16.288
				c-7.422,3.393-14.781,7.043-21.973,10.9c22.094,7.074,43.29,15.514,64.186,25.592c-8.32,3.183-16.602,6.409-24.721,10.083
				c12.65,5.463,24.972,11.34,37.166,17.755c4.357,2.433,8.682,4.906,12.978,7.42h65.837
				C396.904,392.356,401.257,388.003,401.257,382.633z"/>
			<g id="XMLID_413_">
				<path id="XMLID_417_" style="fill:#14213C;" d="M388.989,368.052h-16.697c-0.978,0-1.778-0.8-1.778-1.778l0,0
					c0-0.978,0.8-1.778,1.778-1.778h16.697c0.978,0,1.778,0.8,1.778,1.778l0,0C390.767,367.251,389.967,368.052,388.989,368.052z"/>
				<path id="XMLID_416_" style="fill:#14213C;" d="M388.989,373.387h-23.613c-0.978,0-1.778-0.8-1.778-1.778l0,0
					c0-0.978,0.8-1.778,1.778-1.778h23.613c0.978,0,1.778,0.8,1.778,1.778l0,0C390.767,372.586,389.967,373.387,388.989,373.387z"/>
				<path id="XMLID_415_" style="fill:#14213C;" d="M388.989,378.722h-29.01c-0.978,0-1.778-0.8-1.778-1.778l0,0
					c0-0.978,0.8-1.778,1.778-1.778h29.01c0.978,0,1.778,0.8,1.778,1.778l0,0C390.767,377.922,389.967,378.722,388.989,378.722z"/>
				<path id="XMLID_414_" style="fill:#14213C;" d="M388.989,384.057h-29.01c-0.978,0-1.778-0.8-1.778-1.778l0,0
					c0-0.978,0.8-1.778,1.778-1.778h29.01c0.978,0,1.778,0.8,1.778,1.778l0,0C390.767,383.257,389.967,384.057,388.989,384.057z"/>
			</g>
			<g id="XMLID_418_">
				<path id="XMLID_419_" style="fill:#14213C;" d="M222.335,275.019h11.51v16.714c-4.511,3.008-11.972,5.205-17.756,5.205
					c-12.723,0-21.977-8.791-21.977-20.821c0-11.971,9.6-20.705,22.845-20.705c6.304,0,13.187,2.429,17.524,6.247l-7.577,9.195
					c-2.718-2.602-6.651-4.28-10.005-4.28c-5.205,0-9.023,4.049-9.023,9.543c0,5.611,3.875,9.659,9.138,9.659
					c1.388,0,3.354-0.521,5.32-1.331V275.019z"/>
			</g>
			<g id="XMLID_412_">
				<path id="XMLID_421_" style="fill:#FFFFFF;" d="M251.475,276.175c0,3.999-3.019,6.86-7.252,6.86h-5.606v-13.72h5.704
					C248.476,269.315,251.475,272.157,251.475,276.175z M248.79,276.195c0-2.685-1.94-4.567-4.508-4.567h-3.038v9.095h3.136
					C246.908,280.722,248.79,278.86,248.79,276.195z"/>
				<path id="XMLID_425_" style="fill:#FFFFFF;" d="M263.821,269.315v2.293h-7.428v3.391h6.664v2.293h-6.664v3.45h7.664v2.293
					h-10.29v-13.72H263.821z"/>
				<path id="XMLID_427_" style="fill:#FFFFFF;" d="M269.346,269.315v11.348h5.919v2.372h-8.546v-13.72H269.346z"/>
				<path id="XMLID_429_" style="fill:#FFFFFF;" d="M279.948,269.315v13.72h-2.626v-13.72H279.948z"/>
				<path id="XMLID_431_" style="fill:#FFFFFF;" d="M284.494,269.315l4.038,10.8l4.077-10.8h2.705l-5.488,13.72h-2.724l-5.429-13.72
					H284.494z"/>
				<path id="XMLID_433_" style="fill:#FFFFFF;" d="M307.111,269.315v2.293h-7.428v3.391h6.664v2.293h-6.664v3.45h7.664v2.293
					h-10.29v-13.72H307.111z"/>
				<path id="XMLID_435_" style="fill:#FFFFFF;" d="M318.594,283.035l-2.371-4.057c-0.157,0.02-0.314,0.02-0.49,0.02h-3.097v4.038
					h-2.626v-13.72h5.723c3.548,0,5.566,1.705,5.566,4.724c0,2.156-0.96,3.704-2.724,4.449l3.018,4.547H318.594z M312.636,276.685
					h3.097c1.96,0,3.058-0.843,3.058-2.568c0-1.686-1.097-2.509-3.058-2.509h-3.097V276.685z"/>
				<path id="XMLID_438_" style="fill:#FFFFFF;" d="M330.059,278.547v4.488h-2.626v-4.39l-5.116-9.33h2.665l3.744,6.448l3.685-6.448
					h2.646L330.059,278.547z"/>
			</g>
			<g id="XMLID_349_">
				
					<ellipse id="XMLID_371_" transform="matrix(0.1582 -0.9874 0.9874 0.1582 -27.2818 824.3386)" style="fill:#14213C;" cx="469.816" cy="428.17" rx="40.459" ry="40.459"/>
				
					<ellipse id="XMLID_370_" transform="matrix(0.9214 -0.3886 0.3886 0.9214 -129.4654 216.2308)" style="fill:#41ADA3;" cx="469.816" cy="428.17" rx="25.123" ry="25.123"/>
				<circle id="XMLID_369_" style="fill:#14213C;" cx="469.816" cy="428.169" r="8.699"/>
				<circle id="XMLID_368_" style="fill:#D7D53E;" cx="469.816" cy="428.169" r="5.198"/>
				<path id="XMLID_367_" style="fill:#14213C;" d="M487.404,430.332l-4.194-1.04c-0.63,0-1.146-0.515-1.146-1.146v-0.827
					c0-0.63,0.516-1.146,1.146-1.146l4.194-1.04c1.05,0,1.909,0.859,1.909,1.91v1.379
					C489.314,429.473,488.455,430.332,487.404,430.332z"/>
				<path id="XMLID_366_" style="fill:#14213C;" d="M486.129,421.249l-4.152,1.197c-0.546,0.315-1.25,0.126-1.565-0.419
					l-0.414-0.717c-0.315-0.546-0.126-1.25,0.419-1.565l3.112-2.997c0.91-0.525,2.083-0.211,2.608,0.699l0.69,1.194
					C487.353,419.55,487.039,420.723,486.129,421.249z"/>
				<path id="XMLID_365_" style="fill:#14213C;" d="M480.483,414.019l-2.997,3.113c-0.315,0.546-1.019,0.734-1.565,0.419
					l-0.717-0.414c-0.546-0.315-0.734-1.019-0.419-1.565l1.197-4.152c0.525-0.91,1.699-1.224,2.608-0.699l1.194,0.69
					C480.694,411.936,481.008,413.109,480.483,414.019z"/>
				<path id="XMLID_364_" style="fill:#14213C;" d="M471.979,410.581l-1.04,4.194c0,0.63-0.516,1.146-1.146,1.146h-0.827
					c-0.63,0-1.146-0.516-1.146-1.146l-1.04-4.194c0-1.05,0.859-1.91,1.909-1.91h1.379
					C471.12,408.672,471.979,409.531,471.979,410.581z"/>
				<path id="XMLID_358_" style="fill:#14213C;" d="M462.895,411.856l1.197,4.152c0.315,0.546,0.126,1.25-0.419,1.565l-0.717,0.414
					c-0.546,0.315-1.25,0.126-1.565-0.419l-2.997-3.113c-0.525-0.91-0.211-2.083,0.699-2.608l1.194-0.69
					C461.196,410.632,462.37,410.947,462.895,411.856z"/>
				<path id="XMLID_357_" style="fill:#14213C;" d="M455.666,417.502l3.113,2.997c0.546,0.315,0.734,1.019,0.419,1.565l-0.414,0.717
					c-0.315,0.546-1.019,0.734-1.565,0.419l-4.152-1.197c-0.91-0.525-1.224-1.699-0.699-2.608l0.69-1.194
					C453.582,417.292,454.756,416.977,455.666,417.502z"/>
				<path id="XMLID_356_" style="fill:#14213C;" d="M452.228,426.007l4.194,1.04c0.63,0,1.146,0.516,1.146,1.146v0.827
					c0,0.63-0.516,1.146-1.146,1.146l-4.194,1.04c-1.05,0-1.909-0.859-1.909-1.909v-1.379
					C450.318,426.866,451.177,426.007,452.228,426.007z"/>
				<path id="XMLID_355_" style="fill:#14213C;" d="M453.503,435.091l4.152-1.197c0.546-0.315,1.25-0.126,1.565,0.419l0.414,0.717
					c0.315,0.546,0.126,1.25-0.419,1.565l-3.113,2.997c-0.909,0.525-2.083,0.211-2.608-0.699l-0.689-1.194
					C452.279,436.789,452.593,435.616,453.503,435.091z"/>
				<path id="XMLID_354_" style="fill:#14213C;" d="M459.149,442.32l2.998-3.113c0.315-0.546,1.019-0.734,1.565-0.419l0.717,0.414
					c0.546,0.315,0.734,1.019,0.419,1.565l-1.197,4.152c-0.525,0.91-1.699,1.224-2.608,0.699l-1.194-0.69
					C458.938,444.403,458.624,443.23,459.149,442.32z"/>
				<path id="XMLID_353_" style="fill:#14213C;" d="M467.653,445.758l1.04-4.194c0-0.63,0.516-1.146,1.146-1.146h0.827
					c0.63,0,1.146,0.516,1.146,1.146l1.04,4.194c0,1.05-0.859,1.909-1.91,1.909h-1.379
					C468.512,447.667,467.653,446.808,467.653,445.758z"/>
				<path id="XMLID_352_" style="fill:#14213C;" d="M476.737,444.483l-1.197-4.152c-0.315-0.546-0.126-1.25,0.419-1.565l0.717-0.414
					c0.546-0.315,1.25-0.126,1.565,0.419l2.997,3.113c0.525,0.909,0.21,2.083-0.699,2.608l-1.194,0.69
					C478.436,445.707,477.262,445.392,476.737,444.483z"/>
				<path id="XMLID_350_" style="fill:#14213C;" d="M483.967,438.837l-3.112-2.997c-0.546-0.315-0.734-1.019-0.419-1.565
					l0.414-0.716c0.315-0.546,1.019-0.734,1.565-0.419l4.152,1.197c0.91,0.525,1.224,1.699,0.699,2.608l-0.689,1.194
					C486.05,439.047,484.876,439.362,483.967,438.837z"/>
			</g>
			<g id="XMLID_373_">
				
					<ellipse id="XMLID_389_" transform="matrix(0.7071 -0.7071 0.7071 0.7071 -204.2473 363.2424)" style="fill:#14213C;" cx="336.349" cy="428.17" rx="40.459" ry="40.459"/>
				
					<ellipse id="XMLID_388_" transform="matrix(0.7071 -0.7071 0.7071 0.7071 -204.2473 363.2424)" style="fill:#41ADA3;" cx="336.349" cy="428.17" rx="25.123" ry="25.123"/>
				<circle id="XMLID_387_" style="fill:#14213C;" cx="336.349" cy="428.169" r="8.699"/>
				<circle id="XMLID_386_" style="fill:#D7D53E;" cx="336.349" cy="428.169" r="5.198"/>
				<path id="XMLID_385_" style="fill:#14213C;" d="M353.937,430.332l-4.194-1.04c-0.63,0-1.146-0.515-1.146-1.146v-0.827
					c0-0.63,0.516-1.146,1.146-1.146l4.194-1.04c1.05,0,1.909,0.859,1.909,1.91v1.379
					C355.846,429.473,354.987,430.332,353.937,430.332z"/>
				<path id="XMLID_384_" style="fill:#14213C;" d="M352.662,421.249l-4.152,1.197c-0.546,0.315-1.25,0.126-1.565-0.419
					l-0.414-0.717c-0.315-0.546-0.126-1.25,0.419-1.565l3.113-2.997c0.91-0.525,2.083-0.211,2.608,0.699l0.69,1.194
					C353.886,419.55,353.572,420.723,352.662,421.249z"/>
				<path id="XMLID_383_" style="fill:#14213C;" d="M347.016,414.019l-2.997,3.113c-0.315,0.546-1.019,0.734-1.565,0.419
					l-0.717-0.414c-0.546-0.315-0.734-1.019-0.419-1.565l1.197-4.152c0.525-0.91,1.699-1.224,2.608-0.699l1.194,0.69
					C347.227,411.936,347.541,413.109,347.016,414.019z"/>
				<path id="XMLID_382_" style="fill:#14213C;" d="M338.512,410.581l-1.04,4.194c0,0.63-0.516,1.146-1.146,1.146h-0.828
					c-0.63,0-1.146-0.516-1.146-1.146l-1.04-4.194c0-1.05,0.859-1.91,1.909-1.91h1.379
					C337.652,408.672,338.512,409.531,338.512,410.581z"/>
				<path id="XMLID_381_" style="fill:#14213C;" d="M329.428,411.856l1.197,4.152c0.315,0.546,0.126,1.25-0.419,1.565l-0.717,0.414
					c-0.546,0.315-1.25,0.126-1.565-0.419l-2.997-3.113c-0.525-0.91-0.211-2.083,0.699-2.608l1.194-0.69
					C327.729,410.632,328.902,410.947,329.428,411.856z"/>
				<path id="XMLID_380_" style="fill:#14213C;" d="M322.198,417.502l3.113,2.997c0.546,0.315,0.734,1.019,0.419,1.565l-0.414,0.717
					c-0.315,0.546-1.019,0.734-1.565,0.419l-4.152-1.197c-0.909-0.525-1.224-1.699-0.699-2.608l0.69-1.194
					C320.115,417.292,321.289,416.977,322.198,417.502z"/>
				<path id="XMLID_379_" style="fill:#14213C;" d="M318.76,426.007l4.194,1.04c0.63,0,1.146,0.516,1.146,1.146v0.827
					c0,0.63-0.516,1.146-1.146,1.146l-4.194,1.04c-1.05,0-1.909-0.859-1.909-1.909v-1.379
					C316.851,426.866,317.71,426.007,318.76,426.007z"/>
				<path id="XMLID_378_" style="fill:#14213C;" d="M320.035,435.091l4.152-1.197c0.546-0.315,1.25-0.126,1.565,0.419l0.414,0.717
					c0.315,0.546,0.126,1.25-0.419,1.565l-3.113,2.997c-0.909,0.525-2.083,0.211-2.608-0.699l-0.69-1.194
					C318.811,436.789,319.126,435.616,320.035,435.091z"/>
				<path id="XMLID_377_" style="fill:#14213C;" d="M325.681,442.32l2.997-3.113c0.315-0.546,1.019-0.734,1.565-0.419l0.717,0.414
					c0.546,0.315,0.734,1.019,0.419,1.565l-1.197,4.152c-0.525,0.91-1.699,1.224-2.608,0.699l-1.194-0.69
					C325.471,444.403,325.156,443.23,325.681,442.32z"/>
				<path id="XMLID_376_" style="fill:#14213C;" d="M334.186,445.758l1.04-4.194c0-0.63,0.516-1.146,1.146-1.146h0.827
					c0.63,0,1.146,0.516,1.146,1.146l1.04,4.194c0,1.05-0.859,1.909-1.909,1.909h-1.379
					C335.045,447.667,334.186,446.808,334.186,445.758z"/>
				<path id="XMLID_375_" style="fill:#14213C;" d="M343.27,444.483l-1.197-4.152c-0.315-0.546-0.126-1.25,0.419-1.565l0.717-0.414
					c0.546-0.315,1.25-0.126,1.565,0.419l2.997,3.113c0.525,0.909,0.211,2.083-0.699,2.608l-1.194,0.69
					C344.969,445.707,343.795,445.392,343.27,444.483z"/>
				<path id="XMLID_374_" style="fill:#14213C;" d="M350.499,438.837l-3.113-2.997c-0.546-0.315-0.734-1.019-0.419-1.565
					l0.414-0.716c0.315-0.546,1.019-0.734,1.565-0.419l4.152,1.197c0.909,0.525,1.224,1.699,0.699,2.608l-0.689,1.194
					C352.582,439.047,351.409,439.362,350.499,438.837z"/>
			</g>
			<g id="XMLID_390_">
				
					<ellipse id="XMLID_406_" transform="matrix(0.7071 -0.7071 0.7071 0.7071 -229.3666 302.5991)" style="fill:#14213C;" cx="250.586" cy="428.17" rx="40.459" ry="40.459"/>
				
					<ellipse id="XMLID_405_" transform="matrix(0.7071 -0.7071 0.7071 0.7071 -229.3666 302.5991)" style="fill:#41ADA3;" cx="250.586" cy="428.17" rx="25.123" ry="25.123"/>
				<circle id="XMLID_404_" style="fill:#14213C;" cx="250.586" cy="428.169" r="8.699"/>
				<circle id="XMLID_403_" style="fill:#D7D53E;" cx="250.586" cy="428.169" r="5.198"/>
				<path id="XMLID_402_" style="fill:#14213C;" d="M268.174,430.332l-4.194-1.04c-0.63,0-1.146-0.515-1.146-1.146v-0.827
					c0-0.63,0.516-1.146,1.146-1.146l4.194-1.04c1.05,0,1.91,0.859,1.91,1.91v1.379
					C270.084,429.473,269.225,430.332,268.174,430.332z"/>
				<path id="XMLID_401_" style="fill:#14213C;" d="M266.9,421.249l-4.152,1.197c-0.546,0.315-1.25,0.126-1.565-0.419l-0.414-0.717
					c-0.315-0.546-0.126-1.25,0.419-1.565l3.113-2.997c0.909-0.525,2.083-0.211,2.608,0.699l0.689,1.194
					C268.124,419.55,267.809,420.723,266.9,421.249z"/>
				<path id="XMLID_400_" style="fill:#14213C;" d="M261.253,414.019l-2.997,3.113c-0.315,0.546-1.019,0.734-1.565,0.419
					l-0.717-0.414c-0.546-0.315-0.734-1.019-0.419-1.565l1.197-4.152c0.525-0.91,1.699-1.224,2.608-0.699l1.194,0.69
					C261.464,411.936,261.779,413.109,261.253,414.019z"/>
				<path id="XMLID_399_" style="fill:#14213C;" d="M252.749,410.581l-1.04,4.194c0,0.63-0.516,1.146-1.146,1.146h-0.827
					c-0.63,0-1.146-0.516-1.146-1.146l-1.04-4.194c0-1.05,0.859-1.91,1.909-1.91h1.379
					C251.89,408.672,252.749,409.531,252.749,410.581z"/>
				<path id="XMLID_398_" style="fill:#14213C;" d="M243.665,411.856l1.197,4.152c0.315,0.546,0.126,1.25-0.419,1.565l-0.717,0.414
					c-0.546,0.315-1.25,0.126-1.565-0.419l-2.997-3.113c-0.525-0.91-0.211-2.083,0.699-2.608l1.194-0.69
					C241.966,410.632,243.14,410.947,243.665,411.856z"/>
				<path id="XMLID_397_" style="fill:#14213C;" d="M236.436,417.502l3.112,2.997c0.546,0.315,0.734,1.019,0.419,1.565l-0.414,0.717
					c-0.315,0.546-1.019,0.734-1.565,0.419l-4.152-1.197c-0.91-0.525-1.224-1.699-0.699-2.608l0.69-1.194
					C234.352,417.292,235.526,416.977,236.436,417.502z"/>
				<path id="XMLID_396_" style="fill:#14213C;" d="M232.998,426.007l4.194,1.04c0.63,0,1.146,0.516,1.146,1.146v0.827
					c0,0.63-0.516,1.146-1.146,1.146l-4.194,1.04c-1.05,0-1.91-0.859-1.91-1.909v-1.379
					C231.088,426.866,231.948,426.007,232.998,426.007z"/>
				<path id="XMLID_395_" style="fill:#14213C;" d="M234.273,435.091l4.152-1.197c0.546-0.315,1.25-0.126,1.565,0.419l0.414,0.717
					c0.315,0.546,0.126,1.25-0.419,1.565l-3.113,2.997c-0.91,0.525-2.083,0.211-2.608-0.699l-0.69-1.194
					C233.049,436.789,233.363,435.616,234.273,435.091z"/>
				<path id="XMLID_394_" style="fill:#14213C;" d="M239.919,442.32l2.997-3.113c0.315-0.546,1.019-0.734,1.565-0.419l0.716,0.414
					c0.546,0.315,0.734,1.019,0.419,1.565l-1.197,4.152c-0.525,0.91-1.699,1.224-2.608,0.699l-1.194-0.69
					C239.708,444.403,239.394,443.23,239.919,442.32z"/>
				<path id="XMLID_393_" style="fill:#14213C;" d="M248.423,445.758l1.04-4.194c0-0.63,0.516-1.146,1.146-1.146h0.828
					c0.63,0,1.146,0.516,1.146,1.146l1.04,4.194c0,1.05-0.859,1.909-1.91,1.909h-1.379
					C249.283,447.667,248.423,446.808,248.423,445.758z"/>
				<path id="XMLID_392_" style="fill:#14213C;" d="M257.507,444.483l-1.197-4.152c-0.315-0.546-0.126-1.25,0.419-1.565l0.717-0.414
					c0.546-0.315,1.25-0.126,1.565,0.419l2.997,3.113c0.525,0.909,0.211,2.083-0.699,2.608l-1.194,0.69
					C259.206,445.707,258.032,445.392,257.507,444.483z"/>
				<path id="XMLID_391_" style="fill:#14213C;" d="M264.737,438.837l-3.113-2.997c-0.546-0.315-0.734-1.019-0.419-1.565
					l0.414-0.716c0.315-0.546,1.019-0.734,1.565-0.419l4.152,1.197c0.909,0.525,1.224,1.699,0.699,2.608l-0.69,1.194
					C266.82,439.047,265.646,439.362,264.737,438.837z"/>
			</g>
		</g>
		<g id="XMLID_60_">
			<g id="XMLID_70_">
				<path id="XMLID_74_" style="fill:#41ADA3;" d="M205.419,468.629c0.084-0.564,0.141-1.137,0.141-1.725
					c0-6.448-5.227-11.675-11.675-11.675c-0.426,0-0.847,0.026-1.261,0.071c0.21-0.875,0.333-1.784,0.333-2.724
					c0-6.448-5.227-11.675-11.675-11.675c-4.481,0-8.368,2.528-10.325,6.232c-1.724-1.004-3.722-1.589-5.861-1.589
					c-5.923,0-10.804,4.415-11.561,10.131c-1.008-0.284-2.067-0.446-3.165-0.446c-6.448,0-11.675,5.227-11.675,11.675
					c0,0.588,0.058,1.16,0.141,1.725H205.419z"/>
				<path id="XMLID_73_" style="fill:#9ED5D0;" d="M196.571,468.629c-0.062-0.42-0.105-0.846-0.105-1.283
					c0-4.795,3.887-8.682,8.682-8.682c0.317,0,0.63,0.019,0.938,0.052c-0.156-0.651-0.247-1.327-0.247-2.025
					c0-4.795,3.887-8.681,8.682-8.681c3.332,0,6.222,1.88,7.677,4.634c1.282-0.747,2.768-1.182,4.358-1.182
					c4.404,0,8.034,3.283,8.597,7.533c0.749-0.211,1.537-0.332,2.354-0.332c4.795,0,8.682,3.887,8.682,8.682
					c0,0.437-0.043,0.863-0.105,1.283H196.571z"/>
			</g>
			<g id="XMLID_75_">
				<path id="XMLID_78_" style="fill:#41ADA3;" d="M369.862,468.629c0.074-0.496,0.124-1,0.124-1.516
					c0-5.668-4.595-10.263-10.263-10.263c-0.375,0-0.744,0.023-1.109,0.062c0.184-0.77,0.292-1.569,0.292-2.395
					c0-5.668-4.595-10.263-10.263-10.263c-3.939,0-7.356,2.222-9.076,5.479c-1.516-0.883-3.272-1.397-5.152-1.397
					c-5.207,0-9.497,3.881-10.163,8.906c-0.886-0.249-1.817-0.392-2.782-0.392c-5.668,0-10.263,4.595-10.263,10.263
					c0,0.517,0.051,1.02,0.124,1.516H369.862z"/>
				<path id="XMLID_76_" style="fill:#9ED5D0;" d="M362.085,468.629c-0.055-0.369-0.092-0.743-0.092-1.127
					c0-4.215,3.417-7.632,7.632-7.632c0.279,0,0.553,0.017,0.824,0.046c-0.137-0.572-0.217-1.166-0.217-1.781
					c0-4.215,3.417-7.632,7.632-7.632c2.929,0,5.47,1.652,6.749,4.074c1.127-0.656,2.433-1.039,3.831-1.039
					c3.872,0,7.062,2.886,7.557,6.622c0.659-0.185,1.351-0.292,2.069-0.292c4.215,0,7.632,3.417,7.632,7.632
					c0,0.384-0.038,0.759-0.092,1.127H362.085z"/>
			</g>
			<g id="XMLID_61_">
				<path id="XMLID_69_" style="fill:#41ADA3;" d="M500.94,468.629c-0.102-0.685-0.172-1.38-0.172-2.094
					c0-7.828,6.346-14.173,14.173-14.173c0.518,0,1.028,0.032,1.531,0.086c-0.254-1.063-0.404-2.166-0.404-3.307
					c0-7.828,6.346-14.173,14.173-14.173c5.44,0,10.158,3.069,12.534,7.566c2.093-1.219,4.518-1.929,7.115-1.929
					c7.19,0,13.116,5.36,14.035,12.299c1.224-0.344,2.509-0.542,3.842-0.542c7.828,0,14.173,6.346,14.173,14.173
					c0,0.713-0.07,1.409-0.171,2.094H500.94z"/>
				<path id="XMLID_85_" style="fill:#9ED5D0;" d="M511.681,468.629c0.076-0.509,0.128-1.027,0.128-1.557
					c0-5.821-4.719-10.539-10.539-10.539c-0.385,0-0.764,0.023-1.139,0.064c0.189-0.79,0.3-1.611,0.3-2.459
					c0-5.821-4.719-10.539-10.539-10.539c-4.045,0-7.554,2.282-9.32,5.626c-1.556-0.906-3.36-1.434-5.291-1.434
					c-5.347,0-9.753,3.985-10.436,9.145c-0.91-0.256-1.865-0.403-2.857-0.403c-5.82,0-10.539,4.719-10.539,10.539
					c0,0.53,0.052,1.048,0.127,1.557H511.681z"/>
			</g>
		</g>
	</g>
</g>
</svg>
